<?xml version="1.0" encoding="utf-8"?>
<!-- Generator: Adobe Illustrator 16.0.0, SVG Export Plug-In . SVG Version: 6.00 Build 0)  -->
<!DOCTYPE svg PUBLIC "-//W3C//DTD SVG 1.1//EN" "http://www.w3.org/Graphics/SVG/1.1/DTD/svg11.dtd">
<svg version="1.1" id="Layer_1" xmlns="http://www.w3.org/2000/svg" xmlns:xlink="http://www.w3.org/1999/xlink" x="0px" y="0px"
	 width="128px" height="128px" viewBox="0 0 128 128" enable-background="new 0 0 128 128" xml:space="preserve">
<g>
	<g>
		<path fill="#282D33" d="M102.388,123.799c-6.902,0-9.908-7.4-16.049-24.14c-2.097-5.717-4.238-7.754-5.544-7.754
			c-1.286,0-3.533,2.03-5.63,7.754c-6.133,16.739-9.136,24.14-16.044,24.14c-6.895,0-14.223-10.704-14.223-30.541
			c0-10.503-2.046-15.299-4.416-20.853c-1.807-4.233-3.854-9.032-5.137-16.87c-2.57-15.729,2.49-30.397,12.304-35.671
			c5.841-3.462,9.496-5.129,14.274-5.129c3.54,0,7.559,0.899,13.735,2.558c1.766,0.47,3.436,0.795,5.094,0.993
			c1.652-0.198,3.321-0.524,5.094-0.995c6.171-1.658,10.19-2.557,13.732-2.557c4.781,0,8.437,1.667,14.35,5.17
			c9.742,5.233,14.802,19.901,12.23,35.629c-1.302,7.945-3.357,12.761-5.172,17.009c-2.353,5.51-4.384,10.269-4.384,20.714
			C116.603,113.095,109.278,123.799,102.388,123.799z M80.795,87.905c3.645,0,6.773,3.491,9.3,10.377
			c5.729,15.616,8.272,21.517,12.293,21.517c3.562,0,10.215-7.785,10.215-26.541c0-11.263,2.285-16.616,4.705-22.284
			c1.81-4.237,3.68-8.619,4.903-16.085c2.263-13.845-2.047-27.093-10.249-31.501c-5.563-3.293-8.486-4.652-12.384-4.652
			c-3.099,0-6.854,0.851-12.701,2.421c-2.05,0.544-3.978,0.913-5.899,1.13l-0.224,0.025l-0.224-0.025
			c-1.931-0.216-3.862-0.586-5.905-1.129c-5.851-1.572-9.605-2.422-12.702-2.422c-3.895,0-6.818,1.359-12.308,4.611
			C41.34,27.795,37.03,41.043,39.292,54.889c1.205,7.359,3.067,11.725,4.868,15.946c2.437,5.71,4.737,11.103,4.737,22.423
			c0,18.756,6.658,26.541,10.223,26.541c4.008,0,6.687-6.227,12.289-21.517C74.552,89.705,78.248,87.905,80.795,87.905z"/>
	</g>
	<g>
		<g>
			<path fill="#282D33" d="M85.732,81.764H74.871l-0.587-6.961c-1.519-0.471-2.971-1.105-4.342-1.895l-5.176,4.338l-7.692-7.622
				l4.556-5.333c-0.73-1.385-1.3-2.842-1.706-4.357l-6.766-0.558V48.579l7.032-0.581c0.473-1.494,1.108-2.924,1.899-4.277
				l-4.385-5.132l7.693-7.622l5.38,4.51c1.407-0.729,2.889-1.299,4.427-1.704l0.563-6.693h10.86l0.587,6.959
				c1.52,0.471,2.973,1.105,4.344,1.896l5.175-4.336l7.696,7.62l-4.558,5.336c0.729,1.386,1.299,2.843,1.704,4.356l6.765,0.558
				v10.796l-7.031,0.582c-0.473,1.492-1.108,2.922-1.898,4.276l4.384,5.132L96.1,77.876l-5.38-4.511
				c-1.406,0.729-2.887,1.299-4.426,1.703L85.732,81.764z M78.549,77.764h3.506l0.503-6.005l1.495-0.282
				c2.086-0.395,4.056-1.148,5.855-2.241l1.225-0.743l4.742,3.976l2.465-2.44l-3.923-4.594l0.865-1.264
				c1.187-1.733,2.039-3.643,2.534-5.676l0.341-1.401l6.184-0.511v-3.43l-6.062-0.5l-0.287-1.491
				c-0.396-2.058-1.155-4.005-2.256-5.787l-0.766-1.241l4.004-4.688l-2.466-2.441l-4.647,3.895l-1.249-0.843
				c-1.741-1.176-3.672-2.021-5.736-2.513l-1.408-0.335L82.95,31.08h-3.505l-0.505,6.004l-1.494,0.282
				c-2.085,0.394-4.056,1.147-5.857,2.241l-1.225,0.743l-4.741-3.975l-2.463,2.44l3.927,4.598l-0.869,1.265
				c-1.188,1.728-2.04,3.636-2.532,5.67l-0.34,1.404l-6.187,0.511v3.429l6.065,0.5l0.286,1.492c0.395,2.061,1.153,4.006,2.254,5.782
				l0.77,1.241l-4.005,4.69l2.463,2.44l4.646-3.895l1.249,0.842c1.744,1.176,3.674,2.021,5.737,2.514l1.407,0.335L78.549,77.764z"/>
		</g>
		<g>
			<path fill="#282D33" d="M80.75,64.793c-5.763,0-10.451-4.652-10.451-10.371s4.688-10.371,10.451-10.371
				s10.451,4.652,10.451,10.371S86.513,64.793,80.75,64.793z M80.75,48.051c-3.558,0-6.451,2.858-6.451,6.371
				s2.894,6.371,6.451,6.371s6.451-2.858,6.451-6.371S84.308,48.051,80.75,48.051z"/>
		</g>
	</g>
	<g>
		<g>
			<rect x="11.626" y="90.201" fill="#282D33" width="4" height="37.799"/>
		</g>
		<g>
			
				<rect x="0.277" y="25.194" transform="matrix(0.2787 0.9604 -0.9604 0.2787 33.2828 10.0764)" fill="#282D33" width="19.314" height="4"/>
		</g>
		<g>
			<path fill="#282D33" d="M23.961,91.544H13.626c-2.528,0-4.584-2.045-4.584-4.558v-47.42c0-2.515,2.056-4.561,4.584-4.561h10.335
				c2.528,0,4.584,2.045,4.584,4.559v47.422C28.545,89.499,26.489,91.544,23.961,91.544z M13.626,39.005
				c-0.322,0-0.584,0.251-0.584,0.561v47.42c0,0.308,0.262,0.558,0.584,0.558h10.335c0.322,0,0.584-0.25,0.584-0.558V39.564
				c0-0.308-0.262-0.559-0.584-0.559H13.626z"/>
		</g>
		<g>
			<g>
				<path fill="#282D33" d="M8.15,19.577L8.15,19.577c-1.992,0-3.743-1.266-4.356-3.15l-2.389-7.3
					c-0.378-1.154-0.283-2.388,0.27-3.473C2.23,4.563,3.182,3.753,4.353,3.375l9.833-3.154C14.642,0.075,15.117,0,15.595,0
					c1.987,0,3.738,1.264,4.356,3.146l2.391,7.307c0.378,1.153,0.284,2.385-0.268,3.468c-0.556,1.092-1.508,1.902-2.68,2.281
					l-9.835,3.154C9.104,19.502,8.629,19.577,8.15,19.577z M15.595,4c-0.062,0-0.125,0.01-0.186,0.03L5.577,7.183
					c-0.2,0.064-0.298,0.208-0.338,0.287c-0.046,0.091-0.09,0.237-0.033,0.412l2.39,7.303c0.114,0.351,0.473,0.45,0.739,0.362
					l9.834-3.154c0.202-0.065,0.3-0.208,0.34-0.287c0.046-0.09,0.088-0.234,0.031-0.408L16.15,4.392C16.062,4.122,15.807,4,15.595,4
					z"/>
			</g>
			<g>
				
					<rect x="21.11" y="2.634" transform="matrix(0.3057 0.9521 -0.9521 0.3057 21.9331 -17.7115)" fill="#282D33" width="4" height="7.097"/>
			</g>
		</g>
		<g>
			<rect x="18.654" y="44.688" fill="#282D33" width="6.463" height="4"/>
		</g>
		<g>
			<rect x="18.658" y="54.282" fill="#282D33" width="6.46" height="4"/>
		</g>
		<g>
			<rect x="18.658" y="63.877" fill="#282D33" width="6.46" height="4"/>
		</g>
		<g>
			<rect x="18.658" y="73.471" fill="#282D33" width="6.46" height="4"/>
		</g>
	</g>
</g>
</svg>
